<?xml version="1.0" encoding="utf-8"?>
<!-- Generator: Adobe Illustrator 18.0.0, SVG Export Plug-In . SVG Version: 6.00 Build 0)  -->
<!DOCTYPE svg PUBLIC "-//W3C//DTD SVG 1.1//EN" "http://www.w3.org/Graphics/SVG/1.1/DTD/svg11.dtd">
<svg version="1.1" id="Layer_1" xmlns="http://www.w3.org/2000/svg" xmlns:xlink="http://www.w3.org/1999/xlink" x="0px" y="0px"
	 viewBox="0 0 63.4 73.6" enable-background="new 0 0 63.4 73.6" xml:space="preserve">
<rect x="-69" y="-53.4" display="none" fill="#ED1E79" width="523.6" height="293.3"/>
<g>
	<path fill="#E4C8A1" d="M8,58l22.6-22.6c-0.1-0.1-0.3-0.3-0.4-0.4c-2.9-2.9-4.4-6.5-4.4-10.6c0-4.1,1.5-7.7,4.4-10.6
		c2.9-2.9,6.5-4.4,10.6-4.4c4.1,0,7.7,1.5,10.6,4.4c0.1,0.1,0.3,0.3,0.4,0.4l6.6-6.6c-0.1-0.1-0.3-0.3-0.4-0.4
		C53.2,2.4,47.4,0,40.7,0C34,0,28.2,2.4,23.5,7.1c-4.8,4.8-7.1,10.3-7.1,17c0,5.6,1.7,10.8,5.2,14.8h-1.9c-0.8,0-1.4,0.5-2,1
		L5.9,51.8c-0.5,0.5-0.8,1.3-0.8,2c0,0.8,0.3,1.5,0.8,2L8,58z"/>
</g>
<g>
	<line fill="#E4C8A1" x1="62.7" y1="11" x2="0.7" y2="72.9"/>
	
		<rect x="30.7" y="-1.9" transform="matrix(0.7071 0.7071 -0.7071 0.7071 38.9308 -10.1249)" fill="#E4C8A1" width="2" height="87.6"/>
</g>
</svg>
